# xmcd
#
# Track frame offsets:
#	150
#	12344
#	26072
#	40796
#	54435
#	68245
#	84083
#	99633
#	113560
#	126517
#
# Disc length: 1869 seconds
#
# Revision: 0
# Processed by: cddbd v1.5PL3 Copyright (c) Steve Scherf et al.
# Submitted via: dBpowerAMP V4.0
#
DISCID=7a074b0a
DTITLE=Joan Sebastian - Joyas Musicales Vol.1
DYEAR=2003
DGENRE=Latin
TTITLE0=Como Un Leon Como Un Gorrion
TTITLE1=Alma De Nina
TTITLE2=Contigo O Sin Ti
TTITLE3=Asi De Loco
TTITLE4=Principe Azul
TTITLE5=Oiga
TTITLE6=Mascarada
TTITLE7=Por Segunda Vez
TTITLE8=Llenare Tu Diario
TTITLE9=Manantial
EXTD=Joan Sebastian Has camped Out On top Of The Hispanic Charts For Almost 2 Decades.
EXTT0=
EXTT1=
EXTT2=
EXTT3=
EXTT4=
EXTT5=
EXTT6=
EXTT7=
EXTT8=
EXTT9=
PLAYORDER=
